<svg width="81" height="80" viewBox="0 0 81 80" fill="none" xmlns="http://www.w3.org/2000/svg">
<rect x="0.166748" width="80" height="80" rx="40" fill="url(#paint0_linear_1801_1913)"/>
<path d="M57.6667 38.75H50.0792C49.7989 36.5504 48.7961 34.5062 47.2282 32.9382C45.6604 31.3702 43.6163 30.3672 41.4167 30.0866V22.5H38.9167V30.0866C36.7172 30.3672 34.6731 31.3702 33.1053 32.9382C31.5374 34.5062 30.5346 36.5504 30.2542 38.75H22.6667V41.25H30.2542C30.5346 43.4496 31.5374 45.4938 33.1053 47.0618C34.6731 48.6298 36.7172 49.6328 38.9167 49.9134V57.5H41.4167V49.9134C43.6164 49.6329 45.6607 48.63 47.2286 47.0619C48.7966 45.4939 49.7995 43.4497 50.0799 41.25H57.6667V38.75ZM40.1667 47.5C38.6834 47.5 37.2333 47.0601 36 46.236C34.7666 45.4119 33.8053 44.2406 33.2377 42.8701C32.67 41.4997 32.5215 39.9917 32.8109 38.5368C33.1002 37.082 33.8146 35.7456 34.8634 34.6967C35.9123 33.6478 37.2487 32.9335 38.7036 32.6441C40.1584 32.3547 41.6664 32.5032 43.0369 33.0709C44.4073 33.6386 45.5787 34.5999 46.4028 35.8332C47.2269 37.0666 47.6667 38.5166 47.6667 40C47.6646 41.9885 46.8737 43.8948 45.4676 45.3009C44.0616 46.7069 42.1552 47.4978 40.1667 47.5V47.5Z" fill="white"/>
<defs>
<linearGradient id="paint0_linear_1801_1913" x1="10.8985" y1="68.7805" x2="80.1668" y2="2.06436e-06" gradientUnits="userSpaceOnUse">
<stop stop-color="#614CE1"/>
<stop offset="1" stop-color="#D3CCFF"/>
</linearGradient>
</defs>
</svg>
