<svg width="81" height="80" viewBox="0 0 81 80" fill="none" xmlns="http://www.w3.org/2000/svg">
<rect x="0.833374" width="80" height="80" rx="40" fill="url(#paint0_linear_1801_1904)"/>
<path fill-rule="evenodd" clip-rule="evenodd" d="M48.3334 35H55.8334C56.4962 34.9993 57.1317 34.7357 57.6004 34.267C58.0691 33.7983 58.3327 33.1628 58.3334 32.5V25C58.3327 24.3372 58.0691 23.7017 57.6004 23.233C57.1317 22.7643 56.4962 22.5007 55.8334 22.5H25.8334C25.1705 22.5007 24.5351 22.7643 24.0664 23.233C23.5977 23.7017 23.3341 24.3372 23.3334 25V32.5C23.3341 33.1628 23.5977 33.7983 24.0664 34.267C24.5351 34.7357 25.1705 34.9993 25.8334 35H30.8334V32.5H25.8334V25H55.8334V32.5H48.3334V35ZM53.3334 45V46.25H50.8334V43.75C50.8334 43.4185 50.7017 43.1005 50.4673 42.8661C50.2328 42.6317 49.9149 42.5 49.5834 42.5C49.2518 42.5 48.9339 42.6317 48.6995 42.8661C48.4651 43.1005 48.3334 43.4185 48.3334 43.75V46.25H45.8334V42.5C45.8334 42.1685 45.7017 41.8505 45.4673 41.6161C45.2328 41.3817 44.9149 41.25 44.5834 41.25C44.2518 41.25 43.9339 41.3817 43.6995 41.6161C43.4651 41.8505 43.3334 42.1685 43.3334 42.5V46.25H40.8334V32.5C40.8334 32.1685 40.7017 31.8505 40.4673 31.6161C40.2328 31.3817 39.9149 31.25 39.5834 31.25C39.2518 31.25 38.9339 31.3817 38.6995 31.6161C38.4651 31.8505 38.3334 32.1685 38.3334 32.5V51.1194L31.5834 46.499C31.3975 46.3599 31.1766 46.2753 30.9454 46.2546C30.7142 46.2339 30.4818 46.278 30.2743 46.3819C30.0667 46.4858 29.8921 46.6454 29.7701 46.8429C29.6481 47.0403 29.5834 47.2679 29.5834 47.5C29.5831 47.6634 29.6151 47.8252 29.6777 47.9762C29.7402 48.1271 29.832 48.2642 29.9477 48.3795L37.9211 55.6525L36.2362 57.5L28.1875 50.1577C27.518 49.4915 27.1246 48.5972 27.0861 47.6535C27.0476 46.7098 27.3667 45.7863 27.9796 45.0677C28.5925 44.3491 29.4541 43.8883 30.3921 43.7776C31.3301 43.6668 32.2753 43.9142 33.0387 44.4703L33.0397 44.469L35.8334 46.3806V32.5C35.8334 31.5054 36.2285 30.5516 36.9317 29.8483C37.635 29.1451 38.5888 28.75 39.5834 28.75C40.5779 28.75 41.5318 29.1451 42.235 29.8483C42.9383 30.5516 43.3334 31.5054 43.3334 32.5V38.9807C43.7336 38.8323 44.1565 38.7542 44.5834 38.75C45.2154 38.7512 45.8368 38.9125 46.3897 39.2188C46.9425 39.5252 47.4087 39.9665 47.7449 40.5017C48.5768 40.0172 49.565 39.8767 50.499 40.1102C51.433 40.3437 52.2389 40.9327 52.7449 41.7517C53.3035 41.4271 53.9373 41.2541 54.5834 41.25C55.5776 41.2511 56.5308 41.6465 57.2338 42.3496C57.9368 43.0526 58.3323 44.0058 58.3334 45V57.5H55.8334V45C55.8334 44.6685 55.7017 44.3505 55.4673 44.1161C55.2328 43.8817 54.9149 43.75 54.5834 43.75C54.2518 43.75 53.9339 43.8817 53.6995 44.1161C53.4651 44.3505 53.3334 44.6685 53.3334 45Z" fill="white"/>
<defs>
<linearGradient id="paint0_linear_1801_1904" x1="11.5651" y1="68.7805" x2="80.8334" y2="2.06436e-06" gradientUnits="userSpaceOnUse">
<stop stop-color="#614CE1"/>
<stop offset="1" stop-color="#D3CCFF"/>
</linearGradient>
</defs>
</svg>
