<svg width="80" height="80" viewBox="0 0 80 80" fill="none" xmlns="http://www.w3.org/2000/svg">
<rect width="80" height="80" rx="40" fill="url(#paint0_linear_1801_914)"/>
<path d="M56.8426 43.9001L49.6008 40.0001L56.8426 36.1001C57.0412 35.9931 57.2072 35.8343 57.3229 35.6405C57.4386 35.4468 57.4997 35.2253 57.4997 34.9997C57.4997 34.774 57.4386 34.5526 57.3229 34.3588C57.2072 34.1651 57.0412 34.0063 56.8426 33.8992L40.5926 25.1492C40.4105 25.051 40.2069 24.9995 40 24.9995C39.7931 24.9995 39.5894 25.051 39.4073 25.1492L23.1573 33.8992C22.9587 34.0063 22.7927 34.1651 22.677 34.3588C22.5613 34.5526 22.5002 34.774 22.5002 34.9997C22.5002 35.2253 22.5613 35.4468 22.677 35.6405C22.7927 35.8343 22.9587 35.9931 23.1573 36.1001L30.3991 40.0001L23.1573 43.9001C22.9587 44.0071 22.7927 44.166 22.677 44.3597C22.5613 44.5534 22.5002 44.7749 22.5002 45.0005C22.5002 45.2262 22.5613 45.4476 22.677 45.6414C22.7927 45.8351 22.9587 45.9939 23.1573 46.101L39.4073 54.851C39.5895 54.9491 39.7931 55.0005 40 55.0005C40.2068 55.0005 40.4105 54.9491 40.5926 54.851L56.8426 46.101C57.0412 45.9939 57.2072 45.8351 57.3229 45.6414C57.4386 45.4476 57.4997 45.2262 57.4997 45.0005C57.4997 44.7749 57.4386 44.5534 57.3229 44.3597C57.2072 44.166 57.0412 44.0071 56.8426 43.9001ZM40 27.67L53.6132 35.0001L40 42.3305L26.3867 35.0001L40 27.67ZM40 52.3305L26.3867 45.0001L33.0358 41.4199L39.4073 44.8501C39.5895 44.9482 39.7931 44.9996 40 44.9996C40.2068 44.9996 40.4105 44.9482 40.5926 44.8501L46.9641 41.4194L53.6132 45.0001L40 52.3305Z" fill="white"/>
<defs>
<linearGradient id="paint0_linear_1801_914" x1="10.7317" y1="68.7805" x2="80" y2="2.06436e-06" gradientUnits="userSpaceOnUse">
<stop stop-color="#614CE1"/>
<stop offset="1" stop-color="#D3CCFF"/>
</linearGradient>
</defs>
</svg>
